<?xml version="1.0" encoding="utf-8"?>
<!-- Generator: Adobe Illustrator 17.0.0, SVG Export Plug-In . SVG Version: 6.00 Build 0)  -->
<!DOCTYPE svg PUBLIC "-//W3C//DTD SVG 1.1//EN" "http://www.w3.org/Graphics/SVG/1.1/DTD/svg11.dtd">
<svg version="1.1" id="Layer_1" xmlns="http://www.w3.org/2000/svg" xmlns:xlink="http://www.w3.org/1999/xlink" x="0px" y="0px"
	 width="1920.002px" height="258.998px" viewBox="0 0 1920.002 258.998" enable-background="new 0 0 1920.002 258.998"
	 xml:space="preserve">
<g>
	<polygon fill="#F5F2D0" points="255.446,246.989 479.975,182.477 705.711,246.989 734.683,246.989 960,182.718 1185.431,246.989 
		1212.471,246.989 1438.932,181.511 1665.634,246.989 1693.881,246.989 1920.002,181.245 1920.002,0 0,0 0,180.416 228.533,246.989 
			"/>
	<polygon fill="#EDD7B9" points="1693.881,246.989 1665.634,246.989 1438.932,181.511 1212.471,246.989 1185.431,246.989 
		960,182.718 734.683,246.989 705.711,246.989 479.975,182.477 255.446,246.989 228.533,246.989 0,180.416 0,192.426 
		228.533,258.998 255.446,258.998 479.975,194.486 705.711,258.998 734.683,258.998 960,194.728 1185.431,258.998 1212.471,258.998 
		1438.932,193.52 1665.634,258.998 1693.881,258.998 1920.002,193.254 1920.002,181.245 	"/>
</g>
</svg>
